<?xml version="1.0" encoding="utf-8"?>
<svg xmlns="http://www.w3.org/2000/svg" viewBox="0 0 500 500"
    xmlns:bx="https://boxy-svg.com" width="500px" height="500px">
    <path id="svg_1" fill="#EA4B71" d="M 447.369 223.684 C 422.845 223.684 402.236 206.91 396.395 184.211 L 336.07 184.211 C 323.207 184.211 312.228 193.51 310.114 206.199 L 307.95 219.179 C 305.897 231.502 299.663 242.225 290.847 249.999 C 299.663 257.775 305.897 268.498 307.95 280.82 L 310.114 293.801 C 312.228 306.49 323.207 315.789 336.07 315.789 L 343.764 315.789 C 349.606 293.09 370.212 276.316 394.737 276.316 C 423.805 276.316 447.369 299.879 447.369 328.948 C 447.369 358.015 423.805 381.579 394.737 381.579 C 370.212 381.579 349.606 364.805 343.764 342.105 L 336.07 342.105 C 310.342 342.105 288.386 323.505 284.156 298.128 L 281.992 285.146 C 279.878 272.458 268.899 263.158 256.036 263.158 L 235.185 263.158 C 229.342 285.858 208.735 302.632 184.211 302.632 C 159.687 302.632 139.079 285.858 133.237 263.158 L 103.606 263.158 C 97.764 285.858 77.156 302.632 52.632 302.632 C 23.564 302.632 0 279.068 0 249.999 C 0 220.931 23.564 197.368 52.632 197.368 C 77.156 197.368 97.764 214.142 103.606 236.842 L 133.237 236.842 C 139.079 214.142 159.687 197.368 184.211 197.368 C 208.735 197.368 229.342 214.142 235.185 236.842 L 256.036 236.842 C 268.899 236.842 279.878 227.542 281.992 214.852 L 284.156 201.872 C 288.386 176.495 310.342 157.894 336.07 157.894 L 396.395 157.894 C 402.236 135.195 422.845 118.421 447.369 118.421 C 476.437 118.421 500 141.985 500 171.052 C 500 200.121 476.437 223.684 447.369 223.684 Z M 447.369 197.368 C 461.902 197.368 473.684 185.585 473.684 171.052 C 473.684 156.52 461.902 144.737 447.369 144.737 C 432.836 144.737 421.054 156.52 421.054 171.052 C 421.054 185.585 432.836 197.368 447.369 197.368 Z M 52.632 276.316 C 67.164 276.316 78.948 264.532 78.948 249.999 C 78.948 235.468 67.164 223.684 52.632 223.684 C 38.099 223.684 26.316 235.468 26.316 249.999 C 26.316 264.532 38.099 276.316 52.632 276.316 Z M 210.527 249.999 C 210.527 264.532 198.744 276.316 184.211 276.316 C 169.678 276.316 157.895 264.532 157.895 249.999 C 157.895 235.468 169.678 223.684 184.211 223.684 C 198.744 223.684 210.527 235.468 210.527 249.999 Z M 421.054 328.948 C 421.054 343.48 409.27 355.263 394.737 355.263 C 380.204 355.263 368.422 343.48 368.422 328.948 C 368.422 314.414 380.204 302.632 394.737 302.632 C 409.27 302.632 421.054 314.414 421.054 328.948 Z" clip-rule="evenodd" fill-rule="evenodd" style=""/>
</svg>